<?xml version="1.0" standalone="no"?>
<!DOCTYPE svg PUBLIC "-//W3C//DTD SVG 20010904//EN"
 "http://www.w3.org/TR/2001/REC-SVG-20010904/DTD/svg10.dtd">
<svg version="1.0" xmlns="http://www.w3.org/2000/svg"
 width="250.000000pt" height="250.000000pt" viewBox="0 0 250.000000 250.000000"
 preserveAspectRatio="xMidYMid meet">
<metadata>
Created by potrace 1.11, written by Peter Selinger 2001-2013
</metadata>
<g transform="translate(0.000000,250.000000) scale(0.100000,-0.100000)"
fill="#000000" stroke="none">
<path d="M1488 1834 c-183 -29 -290 -135 -290 -287 0 -74 17 -121 63 -166 49
-49 115 -76 289 -117 178 -42 228 -62 270 -110 25 -29 30 -43 30 -85 0 -61
-28 -118 -72 -144 -93 -55 -260 -56 -363 -2 -55 28 -115 110 -115 156 0 45 -9
51 -75 51 l-63 0 4 -42 c12 -113 82 -219 175 -265 154 -77 397 -69 520 17 91
64 124 127 124 236 0 72 -3 86 -30 130 -55 88 -133 126 -369 179 -191 44 -248
82 -251 170 -4 100 77 166 210 170 139 4 228 -49 259 -155 l16 -56 63 4 c34 2
63 4 64 5 1 1 -3 24 -8 51 -28 153 -135 246 -299 262 -30 3 -59 7 -65 8 -5 1
-45 -3 -87 -10z"/>
<path d="M860 1803 c0 -10 -1 -196 -3 -413 -2 -367 -3 -398 -21 -434 -26 -51
-80 -76 -156 -72 -99 5 -140 52 -148 172 l-5 74 -69 0 -70 0 5 -77 c3 -43 9
-87 12 -98 31 -89 86 -146 167 -170 33 -10 84 -15 137 -14 72 2 92 6 145 33
73 37 115 91 130 170 7 33 11 205 11 448 l0 393 -68 3 c-59 3 -67 1 -67 -15z"/>
</g>
</svg>
